<?xml version="1.0" encoding="utf-8"?>
<!-- Generator: Adobe Illustrator 24.2.1, SVG Export Plug-In . SVG Version: 6.00 Build 0)  -->
<svg version="1.1" id="katman_1" xmlns="http://www.w3.org/2000/svg" xmlns:xlink="http://www.w3.org/1999/xlink" x="0px" y="0px"
	 viewBox="0 0 523.5 65.2" style="enable-background:new 0 0 523.5 65.2;" xml:space="preserve">
<style type="text/css">
	.st0{fill:#FFFFFF;}
	.st1{fill:#E6254A;}
</style>
<path class="st0" d="M4.8,24.4H0v-6.5h4.8v-5.4c-0.1-2.4,0.6-4.8,1.8-6.8c1.2-1.9,2.9-3.3,4.8-4.3c4-1.7,8.4-1.9,12.5-0.5v6.9
	C22.7,7.3,21.4,7,20,7c-1.8-0.1-3.6,0.4-4.9,1.6c-1.2,1.2-1.8,2.9-1.7,4.5v4.7h22.8v32.5h-8.5v-26H13.4v26H4.8L4.8,24.4z M28.4,10.8
	c-0.9-0.9-1.4-2.1-1.4-3.4c0-1.3,0.5-2.5,1.4-3.4c0.9-0.9,2.1-1.4,3.4-1.4c1.3,0,2.5,0.5,3.4,1.4c1.9,1.9,1.9,4.9,0,6.7c0,0,0,0,0,0
	C33.2,12.6,30.3,12.6,28.4,10.8L28.4,10.8z"/>
<path class="st0" d="M44.7,17.9H53v4.4c1.5-1.8,3.4-3.2,5.5-4.1c2.1-0.9,4.4-1.3,6.7-1.3c4.4,0,7.7,1.2,9.8,3.6
	c2.2,2.4,3.3,5.5,3.3,9.4v20.5h-8.5V30.6c0-4.7-2.2-7.1-6.6-7.1c-1.9,0-3.8,0.5-5.5,1.4c-1.8,1-3.3,2.4-4.3,4.2v21.3h-8.5L44.7,17.9
	z"/>
<path class="st0" d="M92.9,49.3c-2.6-1.4-4.7-3.5-6.1-6c-2.9-5.7-2.9-12.4,0-18c1.4-2.6,3.5-4.7,6.1-6.1c2.7-1.5,5.8-2.3,8.8-2.2
	c5.3,0,9.5,1.4,12.6,4.2V0.3h8.5v50h-8.3v-3.7c-1.7,1.6-3.6,2.9-5.8,3.7c-2.3,0.8-4.7,1.2-7.1,1.1C98.7,51.5,95.7,50.7,92.9,49.3z
	 M110.4,42.7c1.9-1.3,3.3-3.1,4-5.3v-6.6c-0.7-2.2-2.1-4-4-5.3c-1.9-1.3-4.2-2-6.5-2c-5.6-0.1-10.3,4.3-10.5,9.9c0,0.2,0,0.5,0,0.7
	c-0.1,2.8,1,5.6,3,7.6c2,2,4.8,3,7.6,2.9C106.2,44.7,108.5,44,110.4,42.7z"/>
<path class="st1" d="M132.9,3h19c5.2,0,9.4,1.4,12.5,4.1c3.1,2.8,4.7,6.5,4.7,11.3c0,5-1.6,8.8-4.7,11.4s-7.3,3.9-12.6,3.9h-10.3
	v16.7h-8.6V3z M150.8,26.6c6.5,0,9.7-2.7,9.7-8.1c0-5.5-3.2-8.3-9.7-8.3h-9.3v16.5H150.8z"/>
<path class="st1" d="M174.5,3h19.8c5.2,0,9.3,1.3,12.1,3.9c2.8,2.6,4.3,6.3,4.3,11.2c0.1,3.2-0.8,6.3-2.6,8.9
	c-1.8,2.5-4.4,4.3-7.3,5.2l9.6,18.2h-8.8l-9.1-17.3h-9.3v17.3h-8.6L174.5,3z M192.7,25.9c2.4,0.1,4.8-0.6,6.8-2
	c1.8-1.4,2.7-3.6,2.6-5.9c0-5.3-3.1-7.9-9.3-7.9h-9.6v15.8L192.7,25.9z"/>
<path class="st1" d="M227.4,48.3c-3.8-2-6.9-5-9-8.7c-4.4-8-4.4-17.7,0-25.7c2.1-3.7,5.2-6.7,9-8.7c8-4.1,17.6-4.1,25.6,0
	c3.8,2,6.9,5,9,8.7c4.4,8,4.4,17.7,0,25.7c-2.1,3.7-5.3,6.7-9,8.7c-3.9,2.1-8.3,3.2-12.8,3.1C235.7,51.5,231.3,50.4,227.4,48.3z
	 M248.5,41.6c2.5-1.4,4.5-3.4,5.9-5.9c2.9-5.6,2.9-12.2,0-17.7c-1.4-2.5-3.4-4.5-5.9-5.9c-5.2-2.8-11.5-2.8-16.7,0
	c-2.5,1.4-4.5,3.4-5.9,5.9c-2.9,5.6-2.9,12.2,0,17.7c1.4,2.5,3.5,4.5,6,5.9c2.5,1.4,5.4,2.1,8.3,2.1
	C243.1,43.6,245.9,42.9,248.5,41.6L248.5,41.6z"/>
<path class="st0" d="M281.4,49.1c-1.9-2-2.8-4.8-2.8-8.4V25.1h-4.9v-6.5h4.9V8.8h8.5v9.8h7.8v6.5h-7.8v14.5c0,2.1,0.4,3.5,1.2,4.4
	s2.2,1.3,4.2,1.3c1.4,0,2.8-0.3,4.1-0.9v6.5c-2.3,0.8-4.7,1.2-7.1,1.1C286,52.1,283.3,51.1,281.4,49.1z"/>
<path class="st0" d="M306.7,47.6c-3.5-3-5.3-7.2-5.3-12.7c0-5.4,1.6-9.6,4.7-12.7c3.1-3.1,7.6-4.7,13.3-4.7c3.4-0.1,6.7,0.6,9.7,2.2
	c2.6,1.3,4.7,3.4,6.1,5.9c1.4,2.6,2.1,5.6,2,8.6v3.9h-27.7c0.6,4.8,4.8,7.2,12.6,7.2c2.1,0,4.3-0.2,6.4-0.5c1.9-0.3,3.8-0.8,5.7-1.5
	v6.6c-1.9,0.7-3.9,1.3-5.9,1.6c-2.4,0.4-4.8,0.6-7.2,0.6C315,52.1,310.2,50.6,306.7,47.6z M329.2,32.3c0.1-2.3-1-4.5-2.7-6
	c-2.1-1.5-4.6-2.2-7.1-2.1c-2.5-0.1-5,0.6-7,2.2c-1.7,1.5-2.7,3.6-2.7,5.9L329.2,32.3z"/>
<path class="st0" d="M346.4,49c-2.5-2-3.9-5.1-3.7-8.3c-0.2-3.2,1.1-6.3,3.5-8.5c2.4-2,5.7-3.1,9.9-3c3.7-0.1,7.4,0.8,10.6,2.5v-0.9
	c0-2.3-0.7-4-2.1-5c-1.4-1-3.7-1.6-6.9-1.6c-2,0-4,0.2-5.9,0.6c-1.8,0.3-3.5,0.9-5.1,1.6v-6.7c1.7-0.7,3.6-1.3,5.5-1.6
	c2.2-0.4,4.4-0.6,6.6-0.6c5.6,0,9.8,1.2,12.5,3.6c2.7,2.4,4.1,5.8,4.1,10.1v19.8h-8.1v-3.2c-1.4,1.3-3,2.4-4.8,3.1
	c-2.1,0.8-4.3,1.1-6.5,1.1C352.5,52.3,349.1,51.2,346.4,49z M363.2,44.8c1.4-0.7,2.7-1.7,3.5-3.1v-3.6c-2.5-1.8-5.5-2.7-8.5-2.6
	c-4.6,0-6.8,1.8-6.8,5.3c-0.1,1.5,0.5,2.9,1.7,3.9c1.5,1,3.2,1.4,5,1.3C359.8,45.9,361.6,45.5,363.2,44.8z"/>
<path class="st0" d="M389.4,50.1c-2.8-1.3-5.1-3.3-6.7-5.9c-3.2-5.8-3.2-12.8,0-18.6c1.6-2.6,3.9-4.7,6.7-6
	c3.2-1.4,6.6-2.1,10.1-2.1c5.1,0,9.1,1,12.1,3v6.8c-2.9-2.1-6.7-3.1-11.2-3.1c-3-0.2-5.9,0.8-8.3,2.6c-2,1.7-3.1,4.4-3.1,8
	c0,3.6,1,6.2,3.1,7.9c2.3,1.8,5.2,2.7,8.2,2.6c4.2,0.1,8.3-1,11.8-3.3v6.8c-1.7,1.1-3.6,1.9-5.5,2.4c-2.3,0.6-4.7,0.8-7.2,0.8
	C395.9,52.2,392.5,51.5,389.4,50.1z"/>
<path class="st0" d="M418.8,1.1h8.5v21.7c3-3.4,7.4-5.3,11.9-5.1c4.4,0,7.7,1.2,9.8,3.6s3.3,5.5,3.3,9.4v20.5h-8.5V31.4
	c0-4.7-2.2-7.1-6.6-7.1c-1.9,0-3.8,0.5-5.5,1.4c-1.8,1-3.3,2.4-4.3,4.2v21.3h-8.5L418.8,1.1z"/>
<path class="st0" d="M464.1,47.6c-3.5-3-5.3-7.2-5.3-12.7c0-5.4,1.6-9.6,4.7-12.7c3.1-3.1,7.6-4.7,13.3-4.7c3.4-0.1,6.7,0.6,9.7,2.2
	c2.6,1.3,4.7,3.4,6.1,5.9c1.4,2.6,2.1,5.6,2,8.6v3.9h-27.7c0.6,4.8,4.8,7.2,12.6,7.2c2.1,0,4.3-0.2,6.4-0.5c1.9-0.3,3.8-0.8,5.7-1.5
	v6.6c-1.9,0.7-3.9,1.3-5.9,1.6c-2.4,0.4-4.8,0.6-7.2,0.6C472.4,52.1,467.6,50.6,464.1,47.6z M486.5,32.3c0.1-2.3-1-4.5-2.7-6
	c-2.1-1.5-4.6-2.2-7.1-2.1c-2.5-0.1-5,0.6-7,2.2c-1.7,1.5-2.7,3.6-2.7,5.9L486.5,32.3z"/>
<path class="st0" d="M501.4,18.6h8.3v5.2c1.4-1.8,3.4-3.2,5.6-3.9c2.7-0.9,5.5-1.3,8.3-1.3v6.5c-2.9-0.1-5.8,0.4-8.6,1.5
	c-2.2,0.9-4,2.6-5,4.8v19.7h-8.6V18.6z"/>
<path class="st1" d="M252.7,40.5l2.8-2.8c1-1,2.6-1,3.6,0L279.4,58c1,1,1,2.6,0,3.6l-2.8,2.8c-1,1-2.6,1-3.6,0l-20.3-20.3
	C251.7,43.2,251.7,41.5,252.7,40.5z"/>
<path class="st1" d="M229,30.4c-4-7,1.1-18.1,12.4-16.6c5.1,0.6-0.4,2.6-3.7,3.7C229.4,20.5,232.2,36.1,229,30.4z"/>
</svg>
