<svg id="katman_1" data-name="katman 1" xmlns="http://www.w3.org/2000/svg" viewBox="0 0 523.53 65.21"><defs><style>.cls-1{fill:#2d2d2d;}.cls-2{fill:#e6254a;}</style></defs><path class="cls-1" d="M191.44,274.74h-4.81v-6.5h4.81v-5.35a12.35,12.35,0,0,1,1.8-6.81,11.51,11.51,0,0,1,4.84-4.27,17.22,17.22,0,0,1,12.53-.51v6.91a9.76,9.76,0,0,0-4-.81,7,7,0,0,0-4.94,1.56,5.86,5.86,0,0,0-1.7,4.54v4.74h22.76v32.5H214.2v-26H200v26h-8.53ZM215,261.19a4.51,4.51,0,0,1-1.39-3.38,4.58,4.58,0,0,1,1.39-3.36,4.64,4.64,0,0,1,3.42-1.38,4.7,4.7,0,0,1,3.38,1.38,4.76,4.76,0,0,1,0,6.74,5,5,0,0,1-6.84,0Z" transform="translate(-186.63 -250.36)"/><path class="cls-1" d="M231.33,268.24h8.26v4.4a14.13,14.13,0,0,1,5.49-4.1,17.33,17.33,0,0,1,6.7-1.32q6.57,0,9.82,3.56t3.25,9.44v20.52h-8.53V281q0-7.12-6.64-7.12a11.41,11.41,0,0,0-5.48,1.39,11.82,11.82,0,0,0-4.34,4.17v21.26h-8.53Z" transform="translate(-186.63 -250.36)"/><path class="cls-1" d="M279.58,299.63a15.42,15.42,0,0,1-6.09-6,19.61,19.61,0,0,1,0-18.05,15.81,15.81,0,0,1,6.09-6.13,17.65,17.65,0,0,1,8.84-2.2q8,0,12.6,4.2V250.69h8.53v50.05h-8.26V297a17.45,17.45,0,0,1-5.76,3.69,20.14,20.14,0,0,1-7.11,1.12A18.15,18.15,0,0,1,279.58,299.63ZM297,293.09a10.4,10.4,0,0,0,4-5.28v-6.57a10.13,10.13,0,0,0-4-5.32,11.21,11.21,0,0,0-6.54-2A10.2,10.2,0,0,0,280,284.56a10.12,10.12,0,0,0,3,7.58,10.39,10.39,0,0,0,7.58,2.91A11.14,11.14,0,0,0,297,293.09Z" transform="translate(-186.63 -250.36)"/><path class="cls-2" d="M319.54,253.4h19q7.78,0,12.49,4.13t4.71,11.31q0,7.46-4.67,11.35t-12.6,3.89H328.15v16.66h-8.61ZM337.42,277q9.69,0,9.69-8.13,0-8.32-9.69-8.33h-9.27V277Z" transform="translate(-186.63 -250.36)"/><path class="cls-2" d="M361.13,253.4H380.9q7.86,0,12.13,3.86t4.26,11.18a15.05,15.05,0,0,1-2.57,8.87,14,14,0,0,1-7.32,5.22L397,300.74h-8.8l-9.15-17.33h-9.34v17.33h-8.6Zm18.22,22.89a10.88,10.88,0,0,0,6.77-2,7,7,0,0,0,2.57-5.89q0-7.92-9.34-7.93h-9.62v15.78Z" transform="translate(-186.63 -250.36)"/><path class="cls-2" d="M414,298.68a22.78,22.78,0,0,1-9-8.7,26.82,26.82,0,0,1,0-25.74,22.94,22.94,0,0,1,9-8.74,27.9,27.9,0,0,1,25.6,0,23,23,0,0,1,9,8.74,26.74,26.74,0,0,1,0,25.7,23,23,0,0,1-9,8.7,26.24,26.24,0,0,1-12.77,3.12A26.65,26.65,0,0,1,414,298.68Zm21.09-6.77A15.35,15.35,0,0,0,441,286a19.1,19.1,0,0,0,0-17.74,15.33,15.33,0,0,0-5.89-5.93,17.63,17.63,0,0,0-16.69,0,15.23,15.23,0,0,0-5.93,5.93,19.1,19.1,0,0,0,0,17.74,15.36,15.36,0,0,0,6,5.9,17,17,0,0,0,8.3,2.06A16.82,16.82,0,0,0,435.08,291.91Z" transform="translate(-186.63 -250.36)"/><path class="cls-1" d="M468.05,299.5q-2.78-3-2.78-8.4V275.46H460.4V269h4.87V259.2h8.53V269h7.79v6.5H473.8V290c0,2.08.39,3.55,1.16,4.43s2.16,1.32,4.2,1.32a9.74,9.74,0,0,0,4.13-.94v6.5a19.42,19.42,0,0,1-7.12,1.15Q470.83,302.48,468.05,299.5Z" transform="translate(-186.63 -250.36)"/><path class="cls-1" d="M493.31,297.94Q488,293.41,488,285.28t4.67-12.67q4.67-4.67,13.34-4.67a20.23,20.23,0,0,1,9.72,2.17,14.43,14.43,0,0,1,6.06,5.92,17.68,17.68,0,0,1,2,8.57v3.93h-27.7q.89,7.25,12.6,7.24a38.86,38.86,0,0,0,6.37-.54,28.17,28.17,0,0,0,5.68-1.49v6.57a27.79,27.79,0,0,1-5.92,1.56,43.06,43.06,0,0,1-7.21.61Q498.6,302.48,493.31,297.94Zm22.48-15.24a7.58,7.58,0,0,0-2.74-6,11.08,11.08,0,0,0-7.14-2.1,10.65,10.65,0,0,0-7.05,2.17,7.72,7.72,0,0,0-2.71,5.89Z" transform="translate(-186.63 -250.36)"/><path class="cls-1" d="M533,299.4a10.2,10.2,0,0,1-3.73-8.3,10.58,10.58,0,0,1,3.52-8.46q3.53-3.06,9.89-3.05a21.4,21.4,0,0,1,10.63,2.5v-.88q0-3.45-2.13-5c-1.42-1-3.72-1.56-6.87-1.56a30.65,30.65,0,0,0-5.9.58,23,23,0,0,0-5.14,1.59v-6.7a22.73,22.73,0,0,1,5.45-1.56,37.27,37.27,0,0,1,6.6-.61q8.46,0,12.53,3.62t4.06,10.06v19.84h-8.06v-3.18a15,15,0,0,1-4.77,3.12,17.48,17.48,0,0,1-6.54,1.08A14.48,14.48,0,0,1,533,299.4Zm16.79-4.27a8.18,8.18,0,0,0,3.52-3.08v-3.59a14.38,14.38,0,0,0-8.53-2.64q-6.84,0-6.84,5.28a4.48,4.48,0,0,0,1.73,3.86,8.2,8.2,0,0,0,5,1.29A11.55,11.55,0,0,0,549.79,295.13Z" transform="translate(-186.63 -250.36)"/><path class="cls-1" d="M576,300.45a15.34,15.34,0,0,1-6.68-5.89,19.29,19.29,0,0,1,0-18.6,15.57,15.57,0,0,1,6.7-5.95,23,23,0,0,1,10.06-2.07q7.59,0,12.12,3v6.84q-4.39-3.12-11.24-3.12a12.43,12.43,0,0,0-8.3,2.61q-3.07,2.61-3.08,8c0,3.56,1,6.21,3.08,7.92a12.31,12.31,0,0,0,8.16,2.57,21,21,0,0,0,11.79-3.25v6.78a17.85,17.85,0,0,1-5.52,2.4,29.35,29.35,0,0,1-7.15.78A23.16,23.16,0,0,1,576,300.45Z" transform="translate(-186.63 -250.36)"/><path class="cls-1" d="M605.46,251.41H614v21.68a15.27,15.27,0,0,1,11.92-5.15q6.57,0,9.82,3.56t3.25,9.44v20.52h-8.53v-19.7q0-7.12-6.64-7.12a11.41,11.41,0,0,0-5.48,1.39A11.82,11.82,0,0,0,614,280.2v21.26h-8.53Z" transform="translate(-186.63 -250.36)"/><path class="cls-1" d="M650.7,297.94q-5.28-4.53-5.28-12.66t4.67-12.67q4.68-4.67,13.34-4.67a20.23,20.23,0,0,1,9.72,2.17,14.43,14.43,0,0,1,6.06,5.92,17.68,17.68,0,0,1,2,8.57v3.93h-27.7q.88,7.25,12.6,7.24a38.86,38.86,0,0,0,6.37-.54,28.45,28.45,0,0,0,5.69-1.49v6.57a28.07,28.07,0,0,1-5.93,1.56,43.06,43.06,0,0,1-7.21.61Q656,302.48,650.7,297.94Zm22.48-15.24a7.58,7.58,0,0,0-2.74-6,11.08,11.08,0,0,0-7.14-2.1,10.65,10.65,0,0,0-7,2.17,7.72,7.72,0,0,0-2.71,5.89Z" transform="translate(-186.63 -250.36)"/><path class="cls-1" d="M688,269h8.26v5.21a11.56,11.56,0,0,1,5.59-3.93,24.89,24.89,0,0,1,8.29-1.28v6.5a22,22,0,0,0-8.57,1.52,9.08,9.08,0,0,0-5,4.78v19.7H688Z" transform="translate(-186.63 -250.36)"/><rect class="cls-2" x="448.2" y="284.54" width="9.07" height="33.84" rx="2.58" transform="translate(-267.2 158.07) rotate(-45)"/><path class="cls-2" d="M415.63,280.8c-4-7,1.07-18.09,12.43-16.63,5.12.65-.41,2.57-3.74,3.74C416.08,270.82,418.85,286.5,415.63,280.8Z" transform="translate(-186.63 -250.36)"/></svg>